<svg id="Layer_1" data-name="Layer 1" xmlns="http://www.w3.org/2000/svg" xmlns:xlink="http://www.w3.org/1999/xlink" viewBox="0 0 500 75"><defs><style>.cls-1{stroke-miterlimit:10;stroke-width:2px;fill:url(#linear-gradient);stroke:url(#linear-gradient-2);}</style><linearGradient id="linear-gradient" x1="250" y1="69.33" x2="250" y2="5.67" gradientUnits="userSpaceOnUse"><stop offset="0" stop-color="#00bda5"/><stop offset="1" stop-color="#05774c"/></linearGradient><linearGradient id="linear-gradient-2" x1="250" y1="70.33" x2="250" y2="4.67" xlink:href="#linear-gradient"/></defs><path class="cls-1" d="M80.72,68.42h.78v.65a29.38,29.38,0,0,1-4.06.26,20,20,0,0,1-5.51-1A14,14,0,0,1,66,64.72a23.89,23.89,0,0,1-6.62-14.15l-4-28.87L41.92,52.2a25.64,25.64,0,0,0-2.21,6.61h-.65L22.26,22.29,19.4,54.53a2.3,2.3,0,0,0,.69,1.95,2.43,2.43,0,0,0,1.78.84h1v.59H10.32v-.65h1a4.79,4.79,0,0,0,3.08-1.07,4.6,4.6,0,0,0,1.66-2.83l4.08-35.42Q14.48,6.7,6.49,6.71c-.47,0-1,0-1.49.07V6.13a12.14,12.14,0,0,1,2.85-.46c.74,0,1.54,0,2.41.1a15.11,15.11,0,0,1,3.05.62,12.49,12.49,0,0,1,3.3,1.52A20.73,20.73,0,0,1,19.34,10a20.91,20.91,0,0,1,2.21,2.37,29.26,29.26,0,0,1,2.79,4.47L40,50.7,57.43,11.58H58L64,50q1.36,9.09,5.88,13.76A14.48,14.48,0,0,0,80.72,68.42Zm28.22-15.51a18.59,18.59,0,0,1-12.13,4,17.13,17.13,0,0,1-13.27-6.13q-5-5.94-5-15.67t5.1-15.64q5.08-5.91,13.59-5.91a17.66,17.66,0,0,1,10.32,3,14.42,14.42,0,0,1,5.77,8.6h.58L112.58,16A27.29,27.29,0,0,0,97.2,11.58q-10.65,0-17.1,6.49T73.65,35.16q0,10.62,6.45,17.1t16.71,6.55q12.33,0,18.23-9.66L115.82,39h-.52Q114.2,48.63,108.94,52.91Zm65.41,3.24a4.49,4.49,0,0,1-1.63-3l-5-41.59h-.59L149.43,50.7l-18.1-39.12h-.65l-4.87,41.59a4.48,4.48,0,0,1-1.59,3,4.73,4.73,0,0,1-3.14,1.11h-1v.65h12.59v-.59h-1a2.44,2.44,0,0,1-1.88-.87,2.36,2.36,0,0,1-.65-1.92l2.79-31.73,16.61,36h.65a25.64,25.64,0,0,1,2.21-6.61L165,21.89l2.92,32.64a2.33,2.33,0,0,1-.65,1.95,2.46,2.46,0,0,1-1.88.84h-1v.59H178.5v-.65h-1A4.76,4.76,0,0,1,174.35,56.15Zm42.17-43.66H199.59l.06.65h.78a4,4,0,0,1,2.79,1.07,4.19,4.19,0,0,1,1.36,2.69V53.17a4.17,4.17,0,0,1-1.26,2.89,4,4,0,0,1-2.89,1.2h-.84v.65H213.8v-.65H213a4,4,0,0,1-2.89-1.2,4.17,4.17,0,0,1-1.26-2.89V14.43h7.46a7.86,7.86,0,0,1,6.36,2.7,11.4,11.4,0,0,1,2.4,7.23v1.43a8.5,8.5,0,0,1-.39,2.46,9.54,9.54,0,0,1-4.87,6,12.6,12.6,0,0,1-8.75,1v.65A15,15,0,0,0,218,37.4a10,10,0,0,0,3.24-.65,12.1,12.1,0,0,0,7.53-6.42A12.25,12.25,0,0,0,229.89,25q0-5.84-3.57-9.18T216.52,12.49Zm50.93.65h.85a4.3,4.3,0,0,1,2.07.52,3.92,3.92,0,0,1,2.08,3.5V34.48H245.91V17.16a4.1,4.1,0,0,1,1.27-2.86,4,4,0,0,1,2.89-1.16h.84v-.65H236.7v.65h.84a4,4,0,0,1,2.89,1.16,4.1,4.1,0,0,1,1.27,2.86V53.23a4.1,4.1,0,0,1-1.27,2.86,4,4,0,0,1-2.89,1.17h-.84v.65h14.21v-.65h-.84a4.09,4.09,0,0,1-2.92-1.17,3.76,3.76,0,0,1-1.24-2.86V36.43h26.54v16.8a4.1,4.1,0,0,1-1.27,2.83,3.93,3.93,0,0,1-2.88,1.2h-.85v.65h14.21v-.65h-.84a4,4,0,0,1-2.89-1.17,4,4,0,0,1-1.26-2.86v-36a4.15,4.15,0,0,1,1.26-2.88,3.93,3.93,0,0,1,2.89-1.2h.84v-.65H267.45Zm62.36,5q6.94,6.52,6.94,17.1t-6.94,17.09q-6.94,6.52-18,6.52t-18-6.52q-6.94-6.51-6.95-17.09t6.95-17.1q6.93-6.53,18-6.52T329.81,18.1Zm1.88,17.1q0-9.74-5.48-15.7t-14.44-6q-9,0-14.44,6t-5.48,15.7q0,9.72,5.48,15.7t14.44,6q9,0,14.44-6T331.69,35.2Zm36,18.55q-2.54,2.14-7.33,2.14h-9.28V36.49h11a3.14,3.14,0,0,1,2.17,1,3,3,0,0,1,.88,2.2v1h.65V30.4h-.65v.9a3.05,3.05,0,0,1-.91,2.27,3.27,3.27,0,0,1-2.21,1h-11v-20h13.24A3.83,3.83,0,0,1,368,18.33V19.5h.65V11.32a18.07,18.07,0,0,1-3.34.78,27.11,27.11,0,0,1-4.38.39h-19l.07.65h.78a4.28,4.28,0,0,1,2.92,1.07,3.34,3.34,0,0,1,1.23,2.62V53.17a4.17,4.17,0,0,1-1.26,2.89,4,4,0,0,1-2.89,1.2h-.85v.65H368.8l3.76-10.52h-.64A15.78,15.78,0,0,1,367.7,53.75Zm46-40.61h1.23a3.83,3.83,0,0,1,2.79,1.13A4,4,0,0,1,419,17.09V49.28L383.6,11.51H383l.13,1a49.94,49.94,0,0,1,.45,7.07V53.3a3.76,3.76,0,0,1-1.17,2.82,3.86,3.86,0,0,1-2.79,1.14h-1.23v.65h13.37v-.65h-1.24a3.86,3.86,0,0,1-2.79-1.14,3.67,3.67,0,0,1-1.16-2.76V21.05l35.36,37.76h.58l-.13-1.16a54.06,54.06,0,0,1-.45-7.14V17a3.93,3.93,0,0,1,1.23-2.76,3.85,3.85,0,0,1,2.79-1.13h1.17v-.65H413.7Zm19.53,0h.84A4,4,0,0,1,437,14.3a4.1,4.1,0,0,1,1.27,2.86v36A4.23,4.23,0,0,1,437,56.06a3.93,3.93,0,0,1-2.89,1.2h-.84v.65h14.21v-.65h-.84a4,4,0,0,1-2.92-1.2,3.87,3.87,0,0,1-1.24-2.89v-36a4.1,4.1,0,0,1,1.27-2.86,4,4,0,0,1,2.89-1.16h.84v-.65H433.23Zm60.86,44.12a7,7,0,0,1-2.59-.52,9.25,9.25,0,0,1-4-3.25L475,33.7,486.31,17a10.53,10.53,0,0,1,2.88-2.72,6.65,6.65,0,0,1,3.67-1.1h.91v-.65h-14.6v.65H480a2.42,2.42,0,0,1,2.2,1.36,2.53,2.53,0,0,1,.39,1.33,2.56,2.56,0,0,1-.39,1.33l-8.82,14-9-14a2.92,2.92,0,0,1-.32-1.29,2.58,2.58,0,0,1,.45-1.37,2.56,2.56,0,0,1,2.21-1.29h.78v-.65h-15.7v.65h.91a6.64,6.64,0,0,1,3.66,1.1A10.57,10.57,0,0,1,459.25,17l11.35,18L458.21,53.43a10.27,10.27,0,0,1-2.92,2.72,6.8,6.8,0,0,1-3.7,1.11h-.91v.65h14.73v-.65h-.84a2.53,2.53,0,0,1-2.21-1.37,2.29,2.29,0,0,1-.45-1.33,2.58,2.58,0,0,1,.39-1.33l10-15.7,10,15.77a2.85,2.85,0,0,1,.33,1.3,2.6,2.6,0,0,1-.46,1.36,2.45,2.45,0,0,1-2.2,1.3h-.78v.65H495v-.65Z"/></svg>